<svg xmlns="http://www.w3.org/2000/svg" viewBox="0 0 760 280" font-family="'Segoe UI',Arial,sans-serif">
  <defs>
    <linearGradient id="bg" x1="0" y1="0" x2="0" y2="1">
      <stop offset="0%" stop-color="#1a1a2e"/>
      <stop offset="100%" stop-color="#16213e"/>
    </linearGradient>
  </defs>

  <!-- Background -->
  <rect width="760" height="280" rx="12" fill="url(#bg)"/>

  <!-- Wave 1: Turns 3-4 (Corners) -->
  <g transform="translate(20,15)">
    <text x="0" y="14" fill="#e6a817" font-size="13" font-weight="bold">Wave 1 (Turn 3-4)</text>
    <!-- 5x5 board -->
    <g transform="translate(0,22)">
      <rect x="0" y="0" width="44" height="44" fill="#2a1a1a" stroke="#ef5350" stroke-width="2"/><text x="22" y="28" text-anchor="middle" fill="#ef5350" font-size="16" font-weight="bold">D</text>
      <rect x="44" y="0" width="44" height="44" fill="#1a1a2e" stroke="#333" stroke-width="1"/><text x="66" y="28" text-anchor="middle" fill="#7986cb" font-size="16">C</text>
      <rect x="88" y="0" width="44" height="44" fill="#1a1a2e" stroke="#333" stroke-width="1"/><text x="110" y="28" text-anchor="middle" fill="#a0a0c0" font-size="16">B</text>
      <rect x="132" y="0" width="44" height="44" fill="#1a1a2e" stroke="#333" stroke-width="1"/><text x="154" y="28" text-anchor="middle" fill="#7986cb" font-size="16">C</text>
      <rect x="176" y="0" width="44" height="44" fill="#2a1a1a" stroke="#ef5350" stroke-width="2"/><text x="198" y="28" text-anchor="middle" fill="#ef5350" font-size="16" font-weight="bold">D</text>

      <rect x="0" y="44" width="44" height="44" fill="#1a1a2e" stroke="#333" stroke-width="1"/><text x="22" y="72" text-anchor="middle" fill="#7986cb" font-size="16">C</text>
      <rect x="44" y="44" width="44" height="44" fill="#0f3460" stroke="#5c6bc0" stroke-width="1"/><text x="66" y="72" text-anchor="middle" fill="#9fa8da" font-size="16">A</text>
      <rect x="88" y="44" width="44" height="44" fill="#0f3460" stroke="#5c6bc0" stroke-width="1"/><text x="110" y="72" text-anchor="middle" fill="#9fa8da" font-size="16">A</text>
      <rect x="132" y="44" width="44" height="44" fill="#0f3460" stroke="#5c6bc0" stroke-width="1"/><text x="154" y="72" text-anchor="middle" fill="#9fa8da" font-size="16">A</text>
      <rect x="176" y="44" width="44" height="44" fill="#1a1a2e" stroke="#333" stroke-width="1"/><text x="198" y="72" text-anchor="middle" fill="#7986cb" font-size="16">C</text>

      <rect x="0" y="88" width="44" height="44" fill="#1a1a2e" stroke="#333" stroke-width="1"/><text x="22" y="116" text-anchor="middle" fill="#a0a0c0" font-size="16">B</text>
      <rect x="44" y="88" width="44" height="44" fill="#0f3460" stroke="#5c6bc0" stroke-width="1"/><text x="66" y="116" text-anchor="middle" fill="#9fa8da" font-size="16">A</text>
      <rect x="88" y="88" width="44" height="44" fill="#1b3a1b" stroke="#4caf50" stroke-width="2.5"/><text x="110" y="116" text-anchor="middle" fill="#4caf50" font-size="16" font-weight="bold">S</text>
      <rect x="132" y="88" width="44" height="44" fill="#0f3460" stroke="#5c6bc0" stroke-width="1"/><text x="154" y="116" text-anchor="middle" fill="#9fa8da" font-size="16">A</text>
      <rect x="176" y="88" width="44" height="44" fill="#1a1a2e" stroke="#333" stroke-width="1"/><text x="198" y="116" text-anchor="middle" fill="#a0a0c0" font-size="16">B</text>

      <rect x="0" y="132" width="44" height="44" fill="#1a1a2e" stroke="#333" stroke-width="1"/><text x="22" y="160" text-anchor="middle" fill="#7986cb" font-size="16">C</text>
      <rect x="44" y="132" width="44" height="44" fill="#0f3460" stroke="#5c6bc0" stroke-width="1"/><text x="66" y="160" text-anchor="middle" fill="#9fa8da" font-size="16">A</text>
      <rect x="88" y="132" width="44" height="44" fill="#0f3460" stroke="#5c6bc0" stroke-width="1"/><text x="110" y="160" text-anchor="middle" fill="#9fa8da" font-size="16">A</text>
      <rect x="132" y="132" width="44" height="44" fill="#0f3460" stroke="#5c6bc0" stroke-width="1"/><text x="154" y="160" text-anchor="middle" fill="#9fa8da" font-size="16">A</text>
      <rect x="176" y="132" width="44" height="44" fill="#1a1a2e" stroke="#333" stroke-width="1"/><text x="198" y="160" text-anchor="middle" fill="#7986cb" font-size="16">C</text>

      <rect x="0" y="176" width="44" height="44" fill="#2a1a1a" stroke="#ef5350" stroke-width="2"/><text x="22" y="204" text-anchor="middle" fill="#ef5350" font-size="16" font-weight="bold">D</text>
      <rect x="44" y="176" width="44" height="44" fill="#1a1a2e" stroke="#333" stroke-width="1"/><text x="66" y="204" text-anchor="middle" fill="#7986cb" font-size="16">C</text>
      <rect x="88" y="176" width="44" height="44" fill="#1a1a2e" stroke="#333" stroke-width="1"/><text x="110" y="204" text-anchor="middle" fill="#a0a0c0" font-size="16">B</text>
      <rect x="132" y="176" width="44" height="44" fill="#1a1a2e" stroke="#333" stroke-width="1"/><text x="154" y="204" text-anchor="middle" fill="#7986cb" font-size="16">C</text>
      <rect x="176" y="176" width="44" height="44" fill="#2a1a1a" stroke="#ef5350" stroke-width="2"/><text x="198" y="204" text-anchor="middle" fill="#ef5350" font-size="16" font-weight="bold">D</text>
    </g>
  </g>

  <!-- Arrow -->
  <g transform="translate(240,110)">
    <line x1="0" y1="30" x2="50" y2="30" stroke="#e6a817" stroke-width="3"/>
    <polygon points="50,22 65,30 50,38" fill="#e6a817"/>
  </g>

  <!-- Wave 2: Turns 5-6 (Edges) -->
  <g transform="translate(310,15)">
    <text x="0" y="14" fill="#e6a817" font-size="13" font-weight="bold">Wave 2 (Turn 5-6)</text>
    <g transform="translate(0,22)">
      <rect x="0" y="0" width="44" height="44" fill="#0d0d0d" stroke="#666" stroke-width="1" stroke-dasharray="3,3"/><text x="22" y="28" text-anchor="middle" fill="#666" font-size="14">✕</text>
      <rect x="44" y="0" width="44" height="44" fill="#2a1a1a" stroke="#ef5350" stroke-width="2"/><text x="66" y="28" text-anchor="middle" fill="#ef5350" font-size="16" font-weight="bold">C</text>
      <rect x="88" y="0" width="44" height="44" fill="#1a1a2e" stroke="#333" stroke-width="1"/><text x="110" y="28" text-anchor="middle" fill="#a0a0c0" font-size="16">B</text>
      <rect x="132" y="0" width="44" height="44" fill="#2a1a1a" stroke="#ef5350" stroke-width="2"/><text x="154" y="28" text-anchor="middle" fill="#ef5350" font-size="16" font-weight="bold">C</text>
      <rect x="176" y="0" width="44" height="44" fill="#0d0d0d" stroke="#666" stroke-width="1" stroke-dasharray="3,3"/><text x="198" y="28" text-anchor="middle" fill="#666" font-size="14">✕</text>

      <rect x="0" y="44" width="44" height="44" fill="#2a1a1a" stroke="#ef5350" stroke-width="2"/><text x="22" y="72" text-anchor="middle" fill="#ef5350" font-size="16" font-weight="bold">C</text>
      <rect x="44" y="44" width="44" height="44" fill="#0f3460" stroke="#5c6bc0" stroke-width="1"/><text x="66" y="72" text-anchor="middle" fill="#9fa8da" font-size="16">A</text>
      <rect x="88" y="44" width="44" height="44" fill="#0f3460" stroke="#5c6bc0" stroke-width="1"/><text x="110" y="72" text-anchor="middle" fill="#9fa8da" font-size="16">A</text>
      <rect x="132" y="44" width="44" height="44" fill="#0f3460" stroke="#5c6bc0" stroke-width="1"/><text x="154" y="72" text-anchor="middle" fill="#9fa8da" font-size="16">A</text>
      <rect x="176" y="44" width="44" height="44" fill="#2a1a1a" stroke="#ef5350" stroke-width="2"/><text x="198" y="72" text-anchor="middle" fill="#ef5350" font-size="16" font-weight="bold">C</text>

      <rect x="0" y="88" width="44" height="44" fill="#1a1a2e" stroke="#333" stroke-width="1"/><text x="22" y="116" text-anchor="middle" fill="#a0a0c0" font-size="16">B</text>
      <rect x="44" y="88" width="44" height="44" fill="#0f3460" stroke="#5c6bc0" stroke-width="1"/><text x="66" y="116" text-anchor="middle" fill="#9fa8da" font-size="16">A</text>
      <rect x="88" y="88" width="44" height="44" fill="#1b3a1b" stroke="#4caf50" stroke-width="2.5"/><text x="110" y="116" text-anchor="middle" fill="#4caf50" font-size="16" font-weight="bold">S</text>
      <rect x="132" y="88" width="44" height="44" fill="#0f3460" stroke="#5c6bc0" stroke-width="1"/><text x="154" y="116" text-anchor="middle" fill="#9fa8da" font-size="16">A</text>
      <rect x="176" y="88" width="44" height="44" fill="#1a1a2e" stroke="#333" stroke-width="1"/><text x="198" y="116" text-anchor="middle" fill="#a0a0c0" font-size="16">B</text>

      <rect x="0" y="132" width="44" height="44" fill="#2a1a1a" stroke="#ef5350" stroke-width="2"/><text x="22" y="160" text-anchor="middle" fill="#ef5350" font-size="16" font-weight="bold">C</text>
      <rect x="44" y="132" width="44" height="44" fill="#0f3460" stroke="#5c6bc0" stroke-width="1"/><text x="66" y="160" text-anchor="middle" fill="#9fa8da" font-size="16">A</text>
      <rect x="88" y="132" width="44" height="44" fill="#0f3460" stroke="#5c6bc0" stroke-width="1"/><text x="110" y="160" text-anchor="middle" fill="#9fa8da" font-size="16">A</text>
      <rect x="132" y="132" width="44" height="44" fill="#0f3460" stroke="#5c6bc0" stroke-width="1"/><text x="154" y="160" text-anchor="middle" fill="#9fa8da" font-size="16">A</text>
      <rect x="176" y="132" width="44" height="44" fill="#2a1a1a" stroke="#ef5350" stroke-width="2"/><text x="198" y="160" text-anchor="middle" fill="#ef5350" font-size="16" font-weight="bold">C</text>

      <rect x="0" y="176" width="44" height="44" fill="#0d0d0d" stroke="#666" stroke-width="1" stroke-dasharray="3,3"/><text x="22" y="204" text-anchor="middle" fill="#666" font-size="14">✕</text>
      <rect x="44" y="176" width="44" height="44" fill="#2a1a1a" stroke="#ef5350" stroke-width="2"/><text x="66" y="204" text-anchor="middle" fill="#ef5350" font-size="16" font-weight="bold">C</text>
      <rect x="88" y="176" width="44" height="44" fill="#1a1a2e" stroke="#333" stroke-width="1"/><text x="110" y="204" text-anchor="middle" fill="#a0a0c0" font-size="16">B</text>
      <rect x="132" y="176" width="44" height="44" fill="#2a1a1a" stroke="#ef5350" stroke-width="2"/><text x="154" y="204" text-anchor="middle" fill="#ef5350" font-size="16" font-weight="bold">C</text>
      <rect x="176" y="176" width="44" height="44" fill="#0d0d0d" stroke="#666" stroke-width="1" stroke-dasharray="3,3"/><text x="198" y="204" text-anchor="middle" fill="#666" font-size="14">✕</text>
    </g>
  </g>

  <!-- Arrow -->
  <g transform="translate(530,110)">
    <line x1="0" y1="30" x2="50" y2="30" stroke="#e6a817" stroke-width="3"/>
    <polygon points="50,22 65,30 50,38" fill="#e6a817"/>
  </g>

  <!-- Wave 3: Turns 7-8 (Center only) -->
  <g transform="translate(600,15)">
    <text x="0" y="14" fill="#e6a817" font-size="13" font-weight="bold">Wave 3 (Turn 7-8)</text>
    <g transform="translate(0,22)">
      <rect x="0" y="0" width="44" height="44" fill="#0d0d0d" stroke="#444" stroke-width="1" stroke-dasharray="3,3"/><text x="22" y="28" text-anchor="middle" fill="#555" font-size="14">✕</text>
      <rect x="44" y="0" width="44" height="44" fill="#0d0d0d" stroke="#444" stroke-width="1" stroke-dasharray="3,3"/><text x="66" y="28" text-anchor="middle" fill="#555" font-size="14">✕</text>
      <rect x="88" y="0" width="44" height="44" fill="#1a1a2e" stroke="#333" stroke-width="1"/><text x="110" y="28" text-anchor="middle" fill="#a0a0c0" font-size="16">B</text>
      <rect x="132" y="0" width="44" height="44" fill="#0d0d0d" stroke="#444" stroke-width="1" stroke-dasharray="3,3"/><text x="154" y="28" text-anchor="middle" fill="#555" font-size="14">✕</text>
      <rect x="176" y="0" width="44" height="44" fill="#0d0d0d" stroke="#444" stroke-width="1" stroke-dasharray="3,3"/><text x="198" y="28" text-anchor="middle" fill="#555" font-size="14">✕</text>

      <rect x="0" y="44" width="44" height="44" fill="#0d0d0d" stroke="#444" stroke-width="1" stroke-dasharray="3,3"/><text x="22" y="72" text-anchor="middle" fill="#555" font-size="14">✕</text>
      <rect x="44" y="44" width="44" height="44" fill="#0f3460" stroke="#5c6bc0" stroke-width="1"/><text x="66" y="72" text-anchor="middle" fill="#9fa8da" font-size="16">A</text>
      <rect x="88" y="44" width="44" height="44" fill="#0f3460" stroke="#5c6bc0" stroke-width="1"/><text x="110" y="72" text-anchor="middle" fill="#9fa8da" font-size="16">A</text>
      <rect x="132" y="44" width="44" height="44" fill="#0f3460" stroke="#5c6bc0" stroke-width="1"/><text x="154" y="72" text-anchor="middle" fill="#9fa8da" font-size="16">A</text>
      <rect x="176" y="44" width="44" height="44" fill="#0d0d0d" stroke="#444" stroke-width="1" stroke-dasharray="3,3"/><text x="198" y="72" text-anchor="middle" fill="#555" font-size="14">✕</text>

      <rect x="0" y="88" width="44" height="44" fill="#1a1a2e" stroke="#333" stroke-width="1"/><text x="22" y="116" text-anchor="middle" fill="#a0a0c0" font-size="16">B</text>
      <rect x="44" y="88" width="44" height="44" fill="#0f3460" stroke="#5c6bc0" stroke-width="1"/><text x="66" y="116" text-anchor="middle" fill="#9fa8da" font-size="16">A</text>
      <rect x="88" y="88" width="44" height="44" fill="#1b3a1b" stroke="#4caf50" stroke-width="2.5"/><text x="110" y="116" text-anchor="middle" fill="#4caf50" font-size="16" font-weight="bold">S</text>
      <rect x="132" y="88" width="44" height="44" fill="#0f3460" stroke="#5c6bc0" stroke-width="1"/><text x="154" y="116" text-anchor="middle" fill="#9fa8da" font-size="16">A</text>
      <rect x="176" y="88" width="44" height="44" fill="#1a1a2e" stroke="#333" stroke-width="1"/><text x="198" y="116" text-anchor="middle" fill="#a0a0c0" font-size="16">B</text>

      <rect x="0" y="132" width="44" height="44" fill="#0d0d0d" stroke="#444" stroke-width="1" stroke-dasharray="3,3"/><text x="22" y="160" text-anchor="middle" fill="#555" font-size="14">✕</text>
      <rect x="44" y="132" width="44" height="44" fill="#0f3460" stroke="#5c6bc0" stroke-width="1"/><text x="66" y="160" text-anchor="middle" fill="#9fa8da" font-size="16">A</text>
      <rect x="88" y="132" width="44" height="44" fill="#0f3460" stroke="#5c6bc0" stroke-width="1"/><text x="110" y="160" text-anchor="middle" fill="#9fa8da" font-size="16">A</text>
      <rect x="132" y="132" width="44" height="44" fill="#0f3460" stroke="#5c6bc0" stroke-width="1"/><text x="154" y="160" text-anchor="middle" fill="#9fa8da" font-size="16">A</text>
      <rect x="176" y="132" width="44" height="44" fill="#0d0d0d" stroke="#444" stroke-width="1" stroke-dasharray="3,3"/><text x="198" y="160" text-anchor="middle" fill="#555" font-size="14">✕</text>

      <rect x="0" y="176" width="44" height="44" fill="#0d0d0d" stroke="#444" stroke-width="1" stroke-dasharray="3,3"/><text x="22" y="204" text-anchor="middle" fill="#555" font-size="14">✕</text>
      <rect x="44" y="176" width="44" height="44" fill="#0d0d0d" stroke="#444" stroke-width="1" stroke-dasharray="3,3"/><text x="66" y="204" text-anchor="middle" fill="#555" font-size="14">✕</text>
      <rect x="88" y="176" width="44" height="44" fill="#1a1a2e" stroke="#333" stroke-width="1"/><text x="110" y="204" text-anchor="middle" fill="#a0a0c0" font-size="16">B</text>
      <rect x="132" y="176" width="44" height="44" fill="#0d0d0d" stroke="#444" stroke-width="1" stroke-dasharray="3,3"/><text x="154" y="204" text-anchor="middle" fill="#555" font-size="14">✕</text>
      <rect x="176" y="176" width="44" height="44" fill="#0d0d0d" stroke="#444" stroke-width="1" stroke-dasharray="3,3"/><text x="198" y="204" text-anchor="middle" fill="#555" font-size="14">✕</text>
    </g>
  </g>

  <!-- Legend -->
  <g transform="translate(20,255)">
    <rect x="0" y="0" width="14" height="14" fill="#1b3a1b" stroke="#4caf50" stroke-width="1.5"/><text x="20" y="12" fill="#4caf50" font-size="11">S = Supreme</text>
    <rect x="110" y="0" width="14" height="14" fill="#0f3460" stroke="#5c6bc0" stroke-width="1"/><text x="130" y="12" fill="#9fa8da" font-size="11">A = Anchor</text>
    <rect x="220" y="0" width="14" height="14" fill="#1a1a2e" stroke="#333" stroke-width="1"/><text x="240" y="12" fill="#a0a0c0" font-size="11">B = Bridge</text>
    <rect x="320" y="0" width="14" height="14" fill="#2a1a1a" stroke="#ef5350" stroke-width="2"/><text x="340" y="12" fill="#ef5350" font-size="11">C/D = Collapsing</text>
    <rect x="460" y="0" width="14" height="14" fill="#0d0d0d" stroke="#666" stroke-width="1" stroke-dasharray="3,3"/><text x="480" y="12" fill="#666" font-size="11">✕ = Gone</text>
  </g>
</svg>