<svg xmlns="http://www.w3.org/2000/svg" viewBox="0 0 800 200" font-family="'Segoe UI',Arial,sans-serif">
  <defs>
    <linearGradient id="bg" x1="0" y1="0" x2="0" y2="1">
      <stop offset="0%" stop-color="#1a1a2e"/>
      <stop offset="100%" stop-color="#16213e"/>
    </linearGradient>
    <linearGradient id="gold" x1="0" y1="0" x2="1" y2="1">
      <stop offset="0%" stop-color="#f0c040"/>
      <stop offset="100%" stop-color="#d4a017"/>
    </linearGradient>
    <filter id="glow">
      <feGaussianBlur stdDeviation="3" result="blur"/>
      <feMerge><feMergeNode in="blur"/><feMergeNode in="SourceGraphic"/></feMerge>
    </filter>
    <marker id="arrow" markerWidth="10" markerHeight="7" refX="9" refY="3.5" orient="auto">
      <polygon points="0 0, 10 3.5, 0 7" fill="#e6a817"/>
    </marker>
  </defs>

  <!-- Background -->
  <rect width="800" height="200" rx="12" fill="url(#bg)"/>
  <!-- Subtle chess pattern -->
  <g opacity="0.04">
    <rect x="0" y="0" width="25" height="25" fill="#fff"/><rect x="25" y="25" width="25" height="25" fill="#fff"/>
    <rect x="50" y="0" width="25" height="25" fill="#fff"/><rect x="75" y="25" width="25" height="25" fill="#fff"/>
    <rect x="100" y="0" width="25" height="25" fill="#fff"/><rect x="125" y="25" width="25" height="25" fill="#fff"/>
  </g>

  <!-- Step 1 -->
  <g transform="translate(30,35)">
    <rect width="155" height="130" rx="10" fill="#0f3460" stroke="#e6a817" stroke-width="2"/>
    <rect width="155" height="36" rx="10" fill="url(#gold)"/>
    <rect x="0" y="20" width="155" height="16" fill="url(#gold)"/>
    <text x="78" y="25" text-anchor="middle" fill="#1a1a2e" font-size="14" font-weight="bold">TURN 1</text>
    <text x="78" y="72" text-anchor="middle" fill="#f5f5f5" font-size="22">♛</text>
    <text x="78" y="98" text-anchor="middle" fill="#f5f5f5" font-size="12">Deploy Queen</text>
    <text x="78" y="115" text-anchor="middle" fill="#a0a0c0" font-size="10">Back rank (safe)</text>
  </g>

  <!-- Arrow 1 -->
  <line x1="190" y1="100" x2="220" y2="100" stroke="#e6a817" stroke-width="2.5" marker-end="url(#arrow)"/>

  <!-- Step 2 -->
  <g transform="translate(225,35)">
    <rect width="155" height="130" rx="10" fill="#0f3460" stroke="#e6a817" stroke-width="2"/>
    <rect width="155" height="36" rx="10" fill="url(#gold)"/>
    <rect x="0" y="20" width="155" height="16" fill="url(#gold)"/>
    <text x="78" y="25" text-anchor="middle" fill="#1a1a2e" font-size="14" font-weight="bold">TURN 2</text>
    <text x="78" y="72" text-anchor="middle" fill="#f5f5f5" font-size="22">⚡</text>
    <text x="78" y="98" text-anchor="middle" fill="#f5f5f5" font-size="12">Teleport Queen</text>
    <text x="78" y="115" text-anchor="middle" fill="#ff6b6b" font-size="10">→ Opponent back rank</text>
  </g>

  <!-- Arrow 2 -->
  <line x1="385" y1="100" x2="415" y2="100" stroke="#e6a817" stroke-width="2.5" marker-end="url(#arrow)"/>

  <!-- Step 3 -->
  <g transform="translate(420,35)">
    <rect width="155" height="130" rx="10" fill="#0f3460" stroke="#e6a817" stroke-width="2"/>
    <rect width="155" height="36" rx="10" fill="url(#gold)"/>
    <rect x="0" y="20" width="155" height="16" fill="url(#gold)"/>
    <text x="78" y="25" text-anchor="middle" fill="#1a1a2e" font-size="14" font-weight="bold">TURN 3</text>
    <text x="78" y="72" text-anchor="middle" fill="#f5f5f5" font-size="22">♚</text>
    <text x="78" y="98" text-anchor="middle" fill="#f5f5f5" font-size="12">King flees</text>
    <text x="78" y="115" text-anchor="middle" fill="#a0a0c0" font-size="10">Queen controls 2+ squares</text>
  </g>

  <!-- Arrow 3 -->
  <line x1="580" y1="100" x2="610" y2="100" stroke="#e6a817" stroke-width="2.5" marker-end="url(#arrow)"/>

  <!-- Step 4 -->
  <g transform="translate(615,35)">
    <rect width="155" height="130" rx="10" fill="#0f3460" stroke="#4caf50" stroke-width="3" filter="url(#glow)"/>
    <rect width="155" height="36" rx="10" fill="#4caf50"/>
    <rect x="0" y="20" width="155" height="16" fill="#4caf50"/>
    <text x="78" y="25" text-anchor="middle" fill="#1a1a2e" font-size="14" font-weight="bold">TURN 4</text>
    <text x="78" y="72" text-anchor="middle" fill="#4caf50" font-size="26" filter="url(#glow)">♛✕♚</text>
    <text x="78" y="100" text-anchor="middle" fill="#4caf50" font-size="14" font-weight="bold">CHECKMATE</text>
    <text x="78" y="118" text-anchor="middle" fill="#81c784" font-size="10">~90% win rate</text>
  </g>
</svg>