<svg xmlns="http://www.w3.org/2000/svg" font-family="Inter,sans-serif" width="700" height="370" viewBox="0 0 700 370">
<rect width="700" height="370" fill="#1A0F1A" rx="12"/>
<text x="350" y="35" fill="#D4A84A" font-family="'VT323',monospace" font-size="22" text-anchor="middle">Build Archetype Comparison</text>

<text x="80" y="68" fill="#D4A84A" font-family="'VT323',monospace" font-size="12" text-anchor="middle">Build</text>
<text x="210" y="68" fill="#D4A84A" font-family="'VT323',monospace" font-size="12" text-anchor="middle">Win Rate</text>
<text x="370" y="68" fill="#D4A84A" font-family="'VT323',monospace" font-size="12" text-anchor="middle">Difficulty</text>
<text x="520" y="68" fill="#D4A84A" font-family="'VT323',monospace" font-size="12" text-anchor="middle">Best Board</text>
<text x="620" y="68" fill="#D4A84A" font-family="'VT323',monospace" font-size="12" text-anchor="middle">Verdict</text>
<line x1="20" y1="78" x2="680" y2="78" stroke="#E8D5C0" stroke-width="0.5" opacity="0.3"/>

<rect x="20" y="88" width="660" height="42" rx="6" fill="#2D1A2D" stroke="#5CB85C" stroke-width="1.5"/>
<text x="80" y="115" fill="#5CB85C" font-family="'VT323',monospace" font-size="13" text-anchor="middle">Pawn Economy</text>
<text x="210" y="115" fill="#F5E6D3" font-size="14" font-weight="bold" text-anchor="middle">70%+</text>
<rect x="300" y="104" width="60" height="14" rx="3" fill="#5CB85C" opacity="0.6"/>
<text x="370" y="115" fill="#F5E6D3" font-size="11" text-anchor="middle">Low</text>
<text x="520" y="115" fill="#E8D5C0" font-size="12" text-anchor="middle">Any</text>
<text x="620" y="115" fill="#5CB85C" font-family="'VT323',monospace" font-size="12" text-anchor="middle">S-Tier</text>

<rect x="20" y="136" width="660" height="42" rx="6" fill="#2D1A2D" stroke="#4A9B9B" stroke-width="1.5"/>
<text x="80" y="163" fill="#4A9B9B" font-family="'VT323',monospace" font-size="13" text-anchor="middle">Queen Supremacy</text>
<text x="210" y="163" fill="#F5E6D3" font-size="14" font-weight="bold" text-anchor="middle">58-65%</text>
<rect x="300" y="152" width="140" height="14" rx="3" fill="#D4764A" opacity="0.6"/>
<text x="370" y="163" fill="#F5E6D3" font-size="11" text-anchor="middle">High</text>
<text x="520" y="163" fill="#E8D5C0" font-size="12" text-anchor="middle">7x7</text>
<text x="620" y="163" fill="#4A9B9B" font-family="'VT323',monospace" font-size="12" text-anchor="middle">A-Tier</text>

<rect x="20" y="184" width="660" height="42" rx="6" fill="#2D1A2D" stroke="#A85D6A" stroke-width="1.5"/>
<text x="80" y="211" fill="#A85D6A" font-family="'VT323',monospace" font-size="13" text-anchor="middle">Knight Aggro</text>
<text x="210" y="211" fill="#F5E6D3" font-size="14" font-weight="bold" text-anchor="middle">50-57%</text>
<rect x="300" y="200" width="100" height="14" rx="3" fill="#D4A84A" opacity="0.6"/>
<text x="370" y="211" fill="#F5E6D3" font-size="11" text-anchor="middle">Medium</text>
<text x="520" y="211" fill="#E8D5C0" font-size="12" text-anchor="middle">5x5</text>
<text x="620" y="211" fill="#A85D6A" font-family="'VT323',monospace" font-size="12" text-anchor="middle">B-Tier</text>

<rect x="20" y="232" width="660" height="42" rx="6" fill="#2D1A2D" stroke="#D4764A" stroke-width="1.5"/>
<text x="80" y="259" fill="#D4764A" font-family="'VT323',monospace" font-size="13" text-anchor="middle">Rook Control</text>
<text x="210" y="259" fill="#F5E6D3" font-size="14" font-weight="bold" text-anchor="middle">48-55%</text>
<rect x="300" y="248" width="140" height="14" rx="3" fill="#D4764A" opacity="0.6"/>
<text x="370" y="259" fill="#F5E6D3" font-size="11" text-anchor="middle">High</text>
<text x="520" y="259" fill="#E8D5C0" font-size="12" text-anchor="middle">6x6-7x7</text>
<text x="620" y="259" fill="#D4764A" font-family="'VT323',monospace" font-size="12" text-anchor="middle">B-Tier</text>

<rect x="20" y="280" width="660" height="42" rx="6" fill="#2D1A2D" stroke="#7A3D4A" stroke-width="1.5"/>
<text x="80" y="307" fill="#C47A85" font-family="'VT323',monospace" font-size="13" text-anchor="middle">Gambit Chain</text>
<text x="210" y="307" fill="#F5E6D3" font-size="14" font-weight="bold" text-anchor="middle">35-60%</text>
<rect x="300" y="296" width="170" height="14" rx="3" fill="#A85D6A" opacity="0.6"/>
<text x="385" y="307" fill="#F5E6D3" font-size="11" text-anchor="middle">Very High</text>
<text x="520" y="307" fill="#E8D5C0" font-size="12" text-anchor="middle">7x7</text>
<text x="620" y="307" fill="#C47A85" font-family="'VT323',monospace" font-size="12" text-anchor="middle">Situat.</text>
</svg>
