<svg xmlns="http://www.w3.org/2000/svg" font-family="Inter,sans-serif" width="700" height="350" viewBox="0 0 700 350">
<rect width="700" height="350" fill="#1A0F1A" rx="12"/>
<text x="350" y="38" fill="#D4A84A" font-family="'VT323',monospace" font-size="22" text-anchor="middle">Grandmaster Boss Fight - Phase Breakdown</text>

<rect x="30" y="70" width="190" height="220" rx="10" fill="#2D1A2D" stroke="#4A9B9B" stroke-width="1.5"/>
<rect x="30" y="70" width="190" height="36" rx="10" fill="#4A9B9B" opacity="0.2"/>
<text x="125" y="93" fill="#4A9B9B" font-family="'VT323',monospace" font-size="16" text-anchor="middle">Phase 1</text>
<text x="125" y="115" fill="#F5E6D3" font-size="13" text-anchor="middle">Grandmaster Standard</text>
<text x="125" y="140" fill="#E8D5C0" font-size="11" text-anchor="middle">Normal AI with</text>
<text x="125" y="156" fill="#E8D5C0" font-size="11" text-anchor="middle">enhanced stats</text>
<text x="125" y="176" fill="#E8D5C0" font-size="11" text-anchor="middle">Standard piece</text>
<text x="125" y="192" fill="#E8D5C0" font-size="11" text-anchor="middle">placement</text>
<line x1="50" y1="210" x2="200" y2="210" stroke="#4A9B9B" stroke-width="0.5" opacity="0.3"/>
<text x="125" y="232" fill="#5CB85C" font-size="12" text-anchor="middle">Goal:</text>
<text x="125" y="250" fill="#F5E6D3" font-size="11" text-anchor="middle">Establish position</text>
<text x="125" y="266" fill="#F5E6D3" font-size="11" text-anchor="middle">Do not lose pieces</text>

<text x="235" y="180" fill="#E8D5C0" font-size="20">-></text>

<rect x="255" y="70" width="190" height="220" rx="10" fill="#2D1A2D" stroke="#A85D6A" stroke-width="1.5"/>
<rect x="255" y="70" width="190" height="36" rx="10" fill="#A85D6A" opacity="0.2"/>
<text x="350" y="93" fill="#A85D6A" font-family="'VT323',monospace" font-size="16" text-anchor="middle">Phase 2</text>
<text x="350" y="115" fill="#F5E6D3" font-size="13" text-anchor="middle">Grandmaster Aggressive</text>
<text x="350" y="140" fill="#E8D5C0" font-size="11" text-anchor="middle">AI targets key pieces</text>
<text x="350" y="156" fill="#E8D5C0" font-size="11" text-anchor="middle">Increased capture</text>
<text x="350" y="176" fill="#E8D5C0" font-size="11" text-anchor="middle">frequency</text>
<line x1="275" y1="210" x2="425" y2="210" stroke="#A85D6A" stroke-width="0.5" opacity="0.3"/>
<text x="350" y="232" fill="#D4764A" font-size="12" text-anchor="middle">Goal:</text>
<text x="350" y="250" fill="#F5E6D3" font-size="11" text-anchor="middle">SURVIVE</text>
<text x="350" y="266" fill="#E8D5C0" font-size="11" text-anchor="middle">Do not overextend</text>

<text x="460" y="180" fill="#E8D5C0" font-size="20">-></text>

<rect x="480" y="70" width="190" height="220" rx="10" fill="#2D1A2D" stroke="#D4A84A" stroke-width="2"/>
<rect x="480" y="70" width="190" height="36" rx="10" fill="#D4A84A" opacity="0.2"/>
<text x="575" y="93" fill="#D4A84A" font-family="'VT323',monospace" font-size="16" text-anchor="middle">Phase 3</text>
<text x="575" y="115" fill="#F5E6D3" font-size="13" text-anchor="middle">Grandmaster Desperation</text>
<text x="575" y="140" fill="#E8D5C0" font-size="11" text-anchor="middle">Multiple threats/turn</text>
<text x="575" y="156" fill="#E8D5C0" font-size="11" text-anchor="middle">Sacrifices pieces for</text>
<text x="575" y="172" fill="#E8D5C0" font-size="11" text-anchor="middle">position</text>
<text x="575" y="192" fill="#D4764A" font-size="11" text-anchor="middle">Most runs end here!</text>
<line x1="500" y1="210" x2="650" y2="210" stroke="#D4A84A" stroke-width="0.5" opacity="0.3"/>
<text x="575" y="232" fill="#5CB85C" font-size="12" text-anchor="middle">WIN CONDITION</text>
<text x="575" y="252" fill="#D4A84A" font-size="12" font-weight="bold" text-anchor="middle">Use Ultimate Counter</text>
<text x="575" y="270" fill="#F5E6D3" font-size="11" text-anchor="middle">Go all-in here</text>

<rect x="100" y="305" width="500" height="32" rx="6" fill="#3A2030" stroke="#D4A84A" stroke-width="1"/>
<text x="350" y="325" fill="#D4A84A" font-family="'VT323',monospace" font-size="13" text-anchor="middle">PRO TIP: Save The Ultimate Counter specifically for Phase 3</text>
</svg>
