<svg xmlns="http://www.w3.org/2000/svg" viewBox="0 0 800 340" width="100%" height="auto" style="max-width:800px;display:block;margin:0 auto" font-family="'Segoe UI','Inter',sans-serif">
  <defs>
    <filter id="s"><feDropShadow dx="0" dy="2" stdDeviation="3" flood-color="#000" flood-opacity="0.5"/></filter>
    <filter id="g"><feDropShadow dx="0" dy="2" stdDeviation="4" flood-color="#000" flood-opacity="0.6"/></filter>
    <style>
      .bg{fill:#120812}.cl{fill:#2A1420}.cd{fill:#1C0A14}.hl{fill:#142E1A}
      .pw{font:24px 'Segoe UI',monospace;text-anchor:middle;dominant-baseline:central;filter:url(#s);fill:#F0E0CC}
      .pb{font:24px 'Segoe UI',monospace;text-anchor:middle;dominant-baseline:central;filter:url(#s);fill:#D44030}
      .ps{font:24px 'Segoe UI',monospace;text-anchor:middle;dominant-baseline:central;filter:url(#s);fill:#F0C040}
      .tl{font:13px Tahoma,sans-serif;fill:#C09050;font-weight:700}
    </style>
  </defs>
  <rect class="bg" width="800" height="340" rx="10" filter="url(#g)"/>

  <!-- Wave 1: Turns 3-4 (Corners) -->
  <g transform="translate(15,15)">
    <text x="0" y="14" class="tl" font-size="12">Wave 1 (Turn 3-4)</text>
    <g transform="translate(0,22)">
      <rect x="0" y="0" width="44" height="44" class="cl" rx="3"/><text x="22" y="27" class="pb">♟</text>
      <rect x="44" y="0" width="44" height="44" class="cd" rx="3"/><text x="66" y="27" class="pw">♚</text>
      <rect x="88" y="0" width="44" height="44" class="cl" rx="3"/><text x="110" y="27" class="pw">♞</text>
      <rect x="132" y="0" width="44" height="44" class="cd" rx="3"/><text x="154" y="27" class="pw">♚</text>
      <rect x="176" y="0" width="44" height="44" class="cl" rx="3"/><text x="198" y="27" class="pb">♟</text>
      <rect x="0" y="44" width="44" height="44" class="cd" rx="3"/><text x="22" y="71" class="pw">♚</text>
      <rect x="44" y="44" width="44" height="44" fill="#2D1A2D" stroke="#D4A84A" stroke-width="1" rx="3"/><text x="66" y="71" class="ps">♜</text>
      <rect x="88" y="44" width="44" height="44" class="cd" rx="3"/><text x="110" y="71" class="ps">♜</text>
      <rect x="132" y="44" width="44" height="44" fill="#2D1A2D" stroke="#D4A84A" stroke-width="1" rx="3"/><text x="154" y="71" class="ps">♜</text>
      <rect x="176" y="44" width="44" height="44" class="cd" rx="3"/><text x="198" y="71" class="pw">♚</text>
      <rect x="0" y="88" width="44" height="44" class="cl" rx="3"/><text x="22" y="115" class="pw">♞</text>
      <rect x="44" y="88" width="44" height="44" class="cd" rx="3"/><text x="66" y="115" class="ps">♜</text>
      <rect x="88" y="88" width="44" height="44" class="hl" rx="3"/><text x="110" y="115" class="ps" font-size="26">♛</text>
      <rect x="132" y="88" width="44" height="44" fill="#2D1A2D" stroke="#D4A84A" stroke-width="1" rx="3"/><text x="154" y="115" class="ps">♜</text>
      <rect x="176" y="88" width="44" height="44" class="cd" rx="3"/><text x="198" y="115" class="pw">♞</text>
      <rect x="0" y="132" width="44" height="44" class="cd" rx="3"/><text x="22" y="159" class="pw">♚</text>
      <rect x="44" y="132" width="44" height="44" fill="#2D1A2D" stroke="#D4A84A" stroke-width="1" rx="3"/><text x="66" y="159" class="ps">♜</text>
      <rect x="88" y="132" width="44" height="44" class="cd" rx="3"/><text x="110" y="159" class="ps">♜</text>
      <rect x="132" y="132" width="44" height="44" fill="#2D1A2D" stroke="#D4A84A" stroke-width="1" rx="3"/><text x="154" y="159" class="ps">♜</text>
      <rect x="176" y="132" width="44" height="44" class="cd" rx="3"/><text x="198" y="159" class="pw">♚</text>
      <rect x="0" y="176" width="44" height="44" class="cl" rx="3"/><text x="22" y="203" class="pb">♟</text>
      <rect x="44" y="176" width="44" height="44" class="cd" rx="3"/><text x="66" y="203" class="pw">♚</text>
      <rect x="88" y="176" width="44" height="44" class="cl" rx="3"/><text x="110" y="203" class="pw">♞</text>
      <rect x="132" y="176" width="44" height="44" class="cd" rx="3"/><text x="154" y="203" class="pw">♚</text>
      <rect x="176" y="176" width="44" height="44" class="cl" rx="3"/><text x="198" y="203" class="pb">♟</text>
    </g>
  </g>

  <!-- Arrow 1→2 -->
  <g transform="translate(240,110)">
    <line x1="0" y1="30" x2="45" y2="30" stroke="#C09050" stroke-width="3"/>
    <polygon points="45,22 60,30 45,38" fill="#C09050"/>
  </g>

  <!-- Wave 2: Turns 5-6 (Edges) -->
  <g transform="translate(290,15)">
    <text x="0" y="14" class="tl" font-size="12">Wave 2 (Turn 5-6)</text>
    <g transform="translate(0,22)">
      <rect x="0" y="0" width="44" height="44" fill="#120812" stroke="#555" stroke-width="1" stroke-dasharray="3,3" rx="3"/><text x="22" y="27" fill="#555" font-size="20" text-anchor="middle" dominant-baseline="central">?</text>
      <rect x="44" y="0" width="44" height="44" class="cl" rx="3"/><text x="66" y="27" class="pb">♟</text>
      <rect x="88" y="0" width="44" height="44" class="cl" rx="3"/><text x="110" y="27" class="pw">♞</text>
      <rect x="132" y="0" width="44" height="44" class="cl" rx="3"/><text x="154" y="27" class="pb">♟</text>
      <rect x="176" y="0" width="44" height="44" fill="#120812" stroke="#555" stroke-width="1" stroke-dasharray="3,3" rx="3"/><text x="198" y="27" fill="#555" font-size="20" text-anchor="middle" dominant-baseline="central">?</text>
      <rect x="0" y="44" width="44" height="44" class="cl" rx="3"/><text x="22" y="71" class="pb">♟</text>
      <rect x="44" y="44" width="44" height="44" fill="#2D1A2D" stroke="#D4A84A" stroke-width="1" rx="3"/><text x="66" y="71" class="ps">♜</text>
      <rect x="88" y="44" width="44" height="44" class="cd" rx="3"/><text x="110" y="71" class="ps">♜</text>
      <rect x="132" y="44" width="44" height="44" fill="#2D1A2D" stroke="#D4A84A" stroke-width="1" rx="3"/><text x="154" y="71" class="ps">♜</text>
      <rect x="176" y="44" width="44" height="44" class="cl" rx="3"/><text x="198" y="71" class="pb">♟</text>
      <rect x="0" y="88" width="44" height="44" class="cl" rx="3"/><text x="22" y="115" class="pw">♞</text>
      <rect x="44" y="88" width="44" height="44" class="cd" rx="3"/><text x="66" y="115" class="ps">♜</text>
      <rect x="88" y="88" width="44" height="44" class="hl" rx="3"/><text x="110" y="115" class="ps" font-size="26">♛</text>
      <rect x="132" y="88" width="44" height="44" fill="#2D1A2D" stroke="#D4A84A" stroke-width="1" rx="3"/><text x="154" y="115" class="ps">♜</text>
      <rect x="176" y="88" width="44" height="44" fill="#120812" stroke="#C08870" stroke-width="1" rx="3"/><text x="198" y="115" class="pw">♞</text>
      <rect x="0" y="132" width="44" height="44" class="cl" rx="3"/><text x="22" y="159" class="pb">♟</text>
      <rect x="44" y="132" width="44" height="44" fill="#2D1A2D" stroke="#D4A84A" stroke-width="1" rx="3"/><text x="66" y="159" class="ps">♜</text>
      <rect x="88" y="132" width="44" height="44" class="cd" rx="3"/><text x="110" y="159" class="ps">♜</text>
      <rect x="132" y="132" width="44" height="44" fill="#2D1A2D" stroke="#D4A84A" stroke-width="1" rx="3"/><text x="154" y="159" class="ps">♜</text>
      <rect x="176" y="132" width="44" height="44" class="cl" rx="3"/><text x="198" y="159" class="pb">♟</text>
      <rect x="0" y="176" width="44" height="44" fill="#120812" stroke="#555" stroke-width="1" stroke-dasharray="3,3" rx="3"/><text x="22" y="203" fill="#555" font-size="20" text-anchor="middle" dominant-baseline="central">?</text>
      <rect x="44" y="176" width="44" height="44" class="cl" rx="3"/><text x="66" y="203" class="pb">♟</text>
      <rect x="88" y="176" width="44" height="44" class="cl" rx="3"/><text x="110" y="203" class="pw">♞</text>
      <rect x="132" y="176" width="44" height="44" class="cl" rx="3"/><text x="154" y="203" class="pb">♟</text>
      <rect x="176" y="176" width="44" height="44" fill="#120812" stroke="#555" stroke-width="1" stroke-dasharray="3,3" rx="3"/><text x="198" y="203" fill="#555" font-size="20" text-anchor="middle" dominant-baseline="central">?</text>
    </g>
  </g>

  <!-- Arrow 2→3 -->
  <g transform="translate(515,110)">
    <line x1="0" y1="30" x2="40" y2="30" stroke="#C09050" stroke-width="3"/>
    <polygon points="40,22 55,30 40,38" fill="#C09050"/>
  </g>

  <!-- Wave 3: Turns 7-8 (Center only) -->
  <g transform="translate(560,15)">
    <text x="0" y="14" class="tl" font-size="12">Wave 3 (Turn 7-8)</text>
    <g transform="translate(0,22)">
      <rect x="0" y="0" width="44" height="44" fill="#120812" stroke="#555" stroke-width="1" stroke-dasharray="3,3" rx="3"/><text x="22" y="27" fill="#555" font-size="20" text-anchor="middle" dominant-baseline="central">?</text>
      <rect x="44" y="0" width="44" height="44" fill="#120812" stroke="#555" stroke-width="1" stroke-dasharray="3,3" rx="3"/><text x="66" y="27" fill="#555" font-size="20" text-anchor="middle" dominant-baseline="central">?</text>
      <rect x="88" y="0" width="44" height="44" class="cl" rx="3"/><text x="110" y="27" class="pw">♞</text>
      <rect x="132" y="0" width="44" height="44" fill="#120812" stroke="#555" stroke-width="1" stroke-dasharray="3,3" rx="3"/><text x="154" y="27" fill="#555" font-size="20" text-anchor="middle" dominant-baseline="central">?</text>
      <rect x="176" y="0" width="44" height="44" fill="#120812" stroke="#555" stroke-width="1" stroke-dasharray="3,3" rx="3"/><text x="198" y="27" fill="#555" font-size="20" text-anchor="middle" dominant-baseline="central">?</text>
      <rect x="0" y="44" width="44" height="44" fill="#120812" stroke="#555" stroke-width="1" stroke-dasharray="3,3" rx="3"/><text x="22" y="71" fill="#555" font-size="20" text-anchor="middle" dominant-baseline="central">?</text>
      <rect x="44" y="44" width="44" height="44" fill="#2D1A2D" stroke="#D4A84A" stroke-width="1" rx="3"/><text x="66" y="71" class="ps">♜</text>
      <rect x="88" y="44" width="44" height="44" class="cd" rx="3"/><text x="110" y="71" class="ps">♜</text>
      <rect x="132" y="44" width="44" height="44" fill="#2D1A2D" stroke="#D4A84A" stroke-width="1" rx="3"/><text x="154" y="71" class="ps">♜</text>
      <rect x="176" y="44" width="44" height="44" fill="#120812" stroke="#555" stroke-width="1" stroke-dasharray="3,3" rx="3"/><text x="198" y="71" fill="#555" font-size="20" text-anchor="middle" dominant-baseline="central">?</text>
      <rect x="0" y="88" width="44" height="44" class="cl" rx="3"/><text x="22" y="115" class="pw">♞</text>
      <rect x="44" y="88" width="44" height="44" class="cd" rx="3"/><text x="66" y="115" class="ps">♜</text>
      <rect x="88" y="88" width="44" height="44" class="hl" rx="3"/><text x="110" y="115" class="ps" font-size="26">♛</text>
      <rect x="132" y="88" width="44" height="44" fill="#2D1A2D" stroke="#D4A84A" stroke-width="1" rx="3"/><text x="154" y="115" class="ps">♜</text>
      <rect x="176" y="88" width="44" height="44" class="cd" rx="3"/><text x="198" y="115" class="pw">♞</text>
      <rect x="0" y="132" width="44" height="44" fill="#120812" stroke="#555" stroke-width="1" stroke-dasharray="3,3" rx="3"/><text x="22" y="159" fill="#555" font-size="20" text-anchor="middle" dominant-baseline="central">?</text>
      <rect x="44" y="132" width="44" height="44" fill="#2D1A2D" stroke="#D4A84A" stroke-width="1" rx="3"/><text x="66" y="159" class="ps">♜</text>
      <rect x="88" y="132" width="44" height="44" class="cd" rx="3"/><text x="110" y="159" class="ps">♜</text>
      <rect x="132" y="132" width="44" height="44" fill="#2D1A2D" stroke="#D4A84A" stroke-width="1" rx="3"/><text x="154" y="159" class="ps">♜</text>
      <rect x="176" y="132" width="44" height="44" fill="#120812" stroke="#555" stroke-width="1" stroke-dasharray="3,3" rx="3"/><text x="198" y="159" fill="#555" font-size="20" text-anchor="middle" dominant-baseline="central">?</text>
      <rect x="0" y="176" width="44" height="44" fill="#120812" stroke="#555" stroke-width="1" stroke-dasharray="3,3" rx="3"/><text x="22" y="203" fill="#555" font-size="20" text-anchor="middle" dominant-baseline="central">?</text>
      <rect x="44" y="176" width="44" height="44" fill="#120812" stroke="#555" stroke-width="1" stroke-dasharray="3,3" rx="3"/><text x="66" y="203" fill="#555" font-size="20" text-anchor="middle" dominant-baseline="central">?</text>
      <rect x="88" y="176" width="44" height="44" class="cl" rx="3"/><text x="110" y="203" class="pw">♞</text>
      <rect x="132" y="176" width="44" height="44" fill="#120812" stroke="#555" stroke-width="1" stroke-dasharray="3,3" rx="3"/><text x="154" y="203" fill="#555" font-size="20" text-anchor="middle" dominant-baseline="central">?</text>
      <rect x="176" y="176" width="44" height="44" fill="#120812" stroke="#555" stroke-width="1" stroke-dasharray="3,3" rx="3"/><text x="198" y="203" fill="#555" font-size="20" text-anchor="middle" dominant-baseline="central">?</text>
    </g>
  </g>

  <!-- Legend -->
  <g transform="translate(20,305)">
    <rect x="0" y="0" width="14" height="14" fill="#142E1A" stroke="#F0A030" stroke-width="1.5" rx="2"/><text x="20" y="12" fill="#81C784" font-size="11" font-weight="bold">S = Queen (center)</text>
    <rect x="160" y="0" width="14" height="14" fill="#2D1A2D" stroke="#F0A030" stroke-width="1" rx="2"/><text x="180" y="12" fill="#F0A030" font-size="11">A = Rook (mid-ring)</text>
    <rect x="320" y="0" width="14" height="14" fill="#1C0A14" stroke="#C08870" stroke-width="1" rx="2"/><text x="340" y="12" fill="#C08870" font-size="11">B = Knight (bridge)</text>
    <rect x="480" y="0" width="14" height="14" fill="#2A1420" stroke="#D44030" stroke-width="1.5" rx="2"/><text x="500" y="12" fill="#D44030" font-size="11">C/D = Pawn (edge)</text>
    <rect x="0" y="20" width="14" height="14" fill="#120812" stroke="#555" stroke-width="1" stroke-dasharray="3,3" rx="2"/><text x="20" y="32" fill="#555" font-size="11">? = Gone</text>
  </g>
</svg>
