<svg xmlns="http://www.w3.org/2000/svg" font-family="Inter,sans-serif" width="600" height="360" viewBox="0 0 600 360">
<rect width="600" height="360" fill="#1A0F1A" rx="12"/>
<text x="300" y="38" fill="#D4A84A" font-family="'VT323',monospace" font-size="22" text-anchor="middle">ADJACENT Tile Reference</text>

<!-- Grid -->
<!-- Row labels -->
<text x="70" y="85" fill="#E8D5C0" font-size="13" text-anchor="end">Tile A</text>
<text x="70" y="165" fill="#E8D5C0" font-size="13" text-anchor="end">Tile B</text>
<text x="70" y="245" fill="#E8D5C0" font-size="13" text-anchor="end">Tile C</text>

<!-- Grid cells -->
<!-- Top row: BAD (diagonal) -->
<rect x="90" y="72" width="60" height="60" rx="6" fill="#3A2030" stroke="#A85D6A" stroke-width="2"/>
<text x="120" y="107" fill="#A85D6A" font-size="12" text-anchor="middle">DIAG</text>
<text x="120" y="123" fill="#E8D5C0" font-size="11" text-anchor="middle">Trap</text>
<rect x="160" y="72" width="60" height="60" rx="6" fill="#3A2030" stroke="#5CB85C" stroke-width="2"/>
<text x="190" y="107" fill="#5CB85C" font-size="12" text-anchor="middle">ADJ</text>
<text x="190" y="123" fill="#E8D5C0" font-size="11" text-anchor="middle">X</text>
<rect x="230" y="72" width="60" height="60" rx="6" fill="#3A2030" stroke="#D4A84A" stroke-width="2"/>
<text x="260" y="107" fill="#D4A84A" font-size="12" text-anchor="middle">PIECE</text>
<text x="260" y="123" fill="#E8D5C0" font-size="11" text-anchor="middle">*</text>
<rect x="300" y="72" width="60" height="60" rx="6" fill="#3A2030" stroke="#5CB85C" stroke-width="2"/>
<text x="330" y="107" fill="#5CB85C" font-size="12" text-anchor="middle">ADJ</text>
<text x="330" y="123" fill="#E8D5C0" font-size="11" text-anchor="middle">X</text>
<rect x="370" y="72" width="60" height="60" rx="6" fill="#3A2030" stroke="#A85D6A" stroke-width="2"/>
<text x="400" y="107" fill="#A85D6A" font-size="12" text-anchor="middle">DIAG</text>
<text x="400" y="123" fill="#E8D5C0" font-size="11" text-anchor="middle">Trap</text>

<!-- Mid row -->
<rect x="90" y="142" width="60" height="60" rx="6" fill="#3A2030" stroke="#5CB85C" stroke-width="2"/>
<text x="120" y="177" fill="#5CB85C" font-size="12" text-anchor="middle">ADJ</text>
<text x="120" y="193" fill="#E8D5C0" font-size="11" text-anchor="middle">X</text>
<rect x="160" y="142" width="60" height="60" rx="6" fill="#3A2030" stroke="#A85D6A" stroke-width="2"/>
<text x="190" y="177" fill="#A85D6A" font-size="12" text-anchor="middle">DIAG</text>
<text x="190" y="193" fill="#E8D5C0" font-size="11" text-anchor="middle">Trap</text>
<rect x="230" y="142" width="60" height="60" rx="6" fill="#2D1A2D" stroke="none"/>
<rect x="300" y="142" width="60" height="60" rx="6" fill="#3A2030" stroke="#A85D6A" stroke-width="2"/>
<text x="330" y="177" fill="#A85D6A" font-size="12" text-anchor="middle">DIAG</text>
<text x="330" y="193" fill="#E8D5C0" font-size="11" text-anchor="middle">Trap</text>
<rect x="370" y="142" width="60" height="60" rx="6" fill="#3A2030" stroke="#5CB85C" stroke-width="2"/>
<text x="400" y="177" fill="#5CB85C" font-size="12" text-anchor="middle">ADJ</text>
<text x="400" y="193" fill="#E8D5C0" font-size="11" text-anchor="middle">X</text>

<!-- Bottom row -->
<rect x="90" y="212" width="60" height="60" rx="6" fill="#3A2030" stroke="#A85D6A" stroke-width="2"/>
<text x="120" y="247" fill="#A85D6A" font-size="12" text-anchor="middle">DIAG</text>
<text x="120" y="263" fill="#E8D5C0" font-size="11" text-anchor="middle">Trap</text>
<rect x="160" y="212" width="60" height="60" rx="6" fill="#3A2030" stroke="#5CB85C" stroke-width="2"/>
<text x="190" y="247" fill="#5CB85C" font-size="12" text-anchor="middle">ADJ</text>
<text x="190" y="263" fill="#E8D5C0" font-size="11" text-anchor="middle">X</text>
<rect x="230" y="212" width="60" height="60" rx="6" fill="#3A2030" stroke="#D4A84A" stroke-width="2"/>
<text x="260" y="247" fill="#D4A84A" font-size="12" text-anchor="middle">PIECE</text>
<text x="260" y="263" fill="#E8D5C0" font-size="11" text-anchor="middle">*</text>
<rect x="300" y="212" width="60" height="60" rx="6" fill="#3A2030" stroke="#5CB85C" stroke-width="2"/>
<text x="330" y="247" fill="#5CB85C" font-size="12" text-anchor="middle">ADJ</text>
<text x="330" y="263" fill="#E8D5C0" font-size="11" text-anchor="middle">X</text>
<rect x="370" y="212" width="60" height="60" rx="6" fill="#3A2030" stroke="#A85D6A" stroke-width="2"/>
<text x="400" y="247" fill="#A85D6A" font-size="12" text-anchor="middle">DIAG</text>
<text x="400" y="263" fill="#E8D5C0" font-size="11" text-anchor="middle">Trap</text>

<!-- Legend -->
<rect x="40" y="295" width="520" height="50" rx="6" fill="#2D1A2D" stroke="#D4A84A" stroke-width="1"/>
<rect x="60" y="308" width="14" height="14" rx="3" fill="none" stroke="#5CB85C" stroke-width="2"/>
<text x="80" y="320" fill="#5CB85C" font-size="12">ADJACENT = triggers Gambit (orthogonal)</text>
<rect x="320" y="308" width="14" height="14" rx="3" fill="none" stroke="#A85D6A" stroke-width="2"/>
<text x="340" y="320" fill="#A85D6A" font-size="12">Diagonal = NO trigger</text>
<text x="250" y="338" fill="#E8D5C0" font-size="11" text-anchor="middle">PIECE * = Your Gambit piece. 4 adjacent tiles total.</text>
</svg>
