<svg xmlns="http://www.w3.org/2000/svg" viewBox="0 0 500 420" font-family="system-ui, sans-serif" font-size="12">
  <rect width="500" height="420" fill="#1a1a2e" rx="8"/>
  <text x="250" y="25" text-anchor="middle" fill="#d4af37" font-size="15" font-weight="bold">Board Unlock Progression</text>

  <!-- Default row -->
  <rect x="180" y="40" width="140" height="24" rx="4" fill="#333" stroke="#888"/>
  <text x="250" y="56" text-anchor="middle" fill="#e0d5c1" font-size="11">4 Default Boards</text>

  <!-- Easy row -->
  <text x="250" y="95" text-anchor="middle" fill="#4caf50" font-size="11" font-weight="bold">Easy - Win 1-3 Runs</text>
  <rect x="20" y="105" width="85" height="22" rx="4" fill="#1b5e20"/>
  <text x="62" y="120" text-anchor="middle" fill="#c8e6c9" font-size="10">Ruby (1 win)</text>
  <rect x="115" y="105" width="85" height="22" rx="4" fill="#1b5e20"/>
  <text x="157" y="120" text-anchor="middle" fill="#c8e6c9" font-size="10">Sapphire (3)</text>
  <rect x="210" y="105" width="85" height="22" rx="4" fill="#1b5e20"/>
  <text x="252" y="120" text-anchor="middle" fill="#c8e6c9" font-size="10">Emerald (tut)</text>
  <rect x="305" y="105" width="85" height="22" rx="4" fill="#1b5e20"/>
  <text x="347" y="120" text-anchor="middle" fill="#c8e6c9" font-size="10">Golden (30)</text>
  <rect x="400" y="105" width="80" height="22" rx="4" fill="#1b5e20"/>
  <text x="440" y="120" text-anchor="middle" fill="#c8e6c9" font-size="10">Ice (Boss1)</text>

  <!-- Medium row -->
  <text x="250" y="165" text-anchor="middle" fill="#ff9800" font-size="11" font-weight="bold">Medium - Specific Conditions</text>
  <rect x="15" y="175" width="90" height="22" rx="4" fill="#e65100"/>
  <text x="60" y="190" text-anchor="middle" fill="#ffe0b2" font-size="10">Lava (50cap)</text>
  <rect x="115" y="175" width="90" height="22" rx="4" fill="#e65100"/>
  <text x="160" y="190" text-anchor="middle" fill="#ffe0b2" font-size="10">Crystal (5gamb)</text>
  <rect x="215" y="175" width="90" height="22" rx="4" fill="#e65100"/>
  <text x="260" y="190" text-anchor="middle" fill="#ffe0b2" font-size="10">Shadow (0 loss)</text>
  <rect x="315" y="175" width="85" height="22" rx="4" fill="#e65100"/>
  <text x="357" y="190" text-anchor="middle" fill="#ffe0b2" font-size="10">Neon (20sell)</text>
  <rect x="410" y="175" width="75" height="22" rx="4" fill="#e65100"/>
  <text x="447" y="190" text-anchor="middle" fill="#ffe0b2" font-size="10">Galaxy (Bi+)</text>

  <!-- Hard row -->
  <text x="250" y="235" text-anchor="middle" fill="#f44336" font-size="11" font-weight="bold">Hard - King Difficulty &amp; Completion</text>
  <rect x="55" y="245" width="110" height="22" rx="4" fill="#b71c1c"/>
  <text x="110" y="260" text-anchor="middle" fill="#ffcdd2" font-size="10">Sunset (10 wins)</text>
  <rect x="180" y="245" width="110" height="22" rx="4" fill="#b71c1c"/>
  <text x="235" y="260" text-anchor="middle" fill="#ffcdd2" font-size="10">Void (Final Boss)</text>
  <rect x="305" y="245" width="130" height="22" rx="4" fill="#b71c1c"/>
  <text x="370" y="260" text-anchor="middle" fill="#ffcdd2" font-size="10">Phantom (all others)</text>

  <!-- Hidden row -->
  <text x="250" y="305" text-anchor="middle" fill="#9c27b0" font-size="11" font-weight="bold">Hidden - Special Conditions</text>
  <rect x="30" y="315" width="95" height="22" rx="4" fill="#4a148c"/>
  <text x="77" y="330" text-anchor="middle" fill="#e1bee7" font-size="10">Lighthouse (1pawn)</text>
  <rect x="140" y="315" width="95" height="22" rx="4" fill="#4a148c"/>
  <text x="187" y="330" text-anchor="middle" fill="#e1bee7" font-size="10">Beta (pre-release)</text>
  <rect x="250" y="315" width="95" height="22" rx="4" fill="#4a148c"/>
  <text x="297" y="330" text-anchor="middle" fill="#e1bee7" font-size="10">Stray Fawn (King)</text>
  <rect x="360" y="315" width="95" height="22" rx="4" fill="#4a148c"/>
  <text x="407" y="330" text-anchor="middle" fill="#e1bee7" font-size="10">Arcade (&lt;10min)</text>

  <text x="250" y="380" text-anchor="middle" fill="#888" font-size="11">21 boards total: 4 default + 17 unlockable (5 easy, 5 med, 3 hard, 4 hidden)</text>
</svg>