<svg xmlns="http://www.w3.org/2000/svg" font-family="Inter,sans-serif" width="700" height="420" viewBox="0 0 700 420">
<rect width="700" height="420" fill="#1A0F1A" rx="12"/>
<text x="350" y="38" fill="#D4A84A" font-family="'VT323',monospace" font-size="22" text-anchor="middle">Tier Comparison: v1.1.0 &rarr; v1.3.0</text>

<!-- Header -->
<rect x="40" y="55" width="140" height="28" rx="4" fill="#3A2030" stroke="#D4A84A" stroke-width="1"/>
<text x="110" y="73" fill="#D4A84A" font-family="'VT323',monospace" font-size="13" text-anchor="middle">Gambit</text>
<rect x="190" y="55" width="150" height="28" rx="4" fill="#3A2030" stroke="#A85D6A" stroke-width="1"/>
<text x="265" y="73" fill="#A85D6A" font-size="12" text-anchor="middle">v1.1 Tier</text>
<rect x="350" y="55" width="150" height="28" rx="4" fill="#3A2030" stroke="#5CB85C" stroke-width="1"/>
<text x="425" y="73" fill="#5CB85C" font-size="12" text-anchor="middle">v1.3 Tier</text>
<rect x="510" y="55" width="150" height="28" rx="4" fill="#3A2030" stroke="#D4A84A" stroke-width="1"/>
<text x="585" y="73" fill="#D4A84A" font-family="'VT323',monospace" font-size="12" text-anchor="middle">Why</text>

<!-- Templar -->
<rect x="40" y="90" width="140" height="32" rx="4" fill="#2D1A2D" stroke="#E8D5C0" stroke-width="1"/>
<text x="110" y="110" fill="#F5E6D3" font-size="13" text-anchor="middle">Templar</text>
<rect x="190" y="90" width="150" height="32" rx="4" fill="#3A2030"/>
<text x="265" y="110" fill="#D4A84A" font-size="13" text-anchor="middle">S-Tier</text>
<rect x="350" y="90" width="150" height="32" rx="4" fill="#2D1A2D" stroke="#D4764A" stroke-width="1.5"/>
<text x="425" y="110" fill="#D4764A" font-size="13" text-anchor="middle">B-Tier</text>
<rect x="510" y="90" width="150" height="32" rx="4" fill="#2D1A2D" stroke="#D4764A" stroke-width="1"/>
<text x="585" y="110" fill="#D4764A" font-size="11" text-anchor="middle">1/1 &rarr; 1/3</text>

<!-- Whip -->
<rect x="40" y="127" width="140" height="32" rx="4" fill="#2D1A2D" stroke="#E8D5C0" stroke-width="1"/>
<text x="110" y="147" fill="#F5E6D3" font-size="13" text-anchor="middle">Whip</text>
<rect x="190" y="127" width="150" height="32" rx="4" fill="#3A2030"/>
<text x="265" y="147" fill="#D4764A" font-size="13" text-anchor="middle">A-Tier</text>
<rect x="350" y="127" width="150" height="32" rx="4" fill="#2D1A2D" stroke="#5CB85C" stroke-width="1.5"/>
<text x="425" y="147" fill="#5CB85C" font-size="13" text-anchor="middle">S-Tier</text>
<rect x="510" y="127" width="150" height="32" rx="4" fill="#2D1A2D" stroke="#5CB85C" stroke-width="1"/>
<text x="585" y="147" fill="#5CB85C" font-size="11" text-anchor="middle">1/2 &rarr; 1/1</text>

<!-- Dead or Alive -->
<rect x="40" y="164" width="140" height="32" rx="4" fill="#2D1A2D" stroke="#E8D5C0" stroke-width="1"/>
<text x="110" y="184" fill="#F5E6D3" font-size="13" text-anchor="middle">Dead/Alive</text>
<rect x="190" y="164" width="150" height="32" rx="4" fill="#3A2030"/>
<text x="265" y="184" fill="#D4764A" font-size="13" text-anchor="middle">B-Tier</text>
<rect x="350" y="164" width="150" height="32" rx="4" fill="#2D1A2D" stroke="#5CB85C" stroke-width="1.5"/>
<text x="425" y="184" fill="#5CB85C" font-size="13" text-anchor="middle">S-Tier</text>
<rect x="510" y="164" width="150" height="32" rx="4" fill="#2D1A2D" stroke="#5CB85C" stroke-width="1"/>
<text x="585" y="184" fill="#5CB85C" font-size="11" text-anchor="middle">1/3 &rarr; 1/1</text>

<!-- Show Jumping -->
<rect x="40" y="201" width="140" height="32" rx="4" fill="#2D1A2D" stroke="#E8D5C0" stroke-width="1"/>
<text x="110" y="221" fill="#F5E6D3" font-size="13" text-anchor="middle">Show Jump</text>
<rect x="190" y="201" width="150" height="32" rx="4" fill="#3A2030"/>
<text x="265" y="221" fill="#D4764A" font-size="13" text-anchor="middle">B-Tier</text>
<rect x="350" y="201" width="150" height="32" rx="4" fill="#2D1A2D" stroke="#5CB85C" stroke-width="1.5"/>
<text x="425" y="221" fill="#5CB85C" font-size="13" text-anchor="middle">A-Tier</text>
<rect x="510" y="201" width="150" height="32" rx="4" fill="#2D1A2D" stroke="#5CB85C" stroke-width="1"/>
<text x="585" y="221" fill="#5CB85C" font-size="11" text-anchor="middle">1/2 &rarr; 1/1</text>

<!-- Miracle -->
<rect x="40" y="238" width="140" height="32" rx="4" fill="#2D1A2D" stroke="#E8D5C0" stroke-width="1"/>
<text x="110" y="258" fill="#F5E6D3" font-size="13" text-anchor="middle">Miracle</text>
<rect x="190" y="238" width="150" height="32" rx="4" fill="#3A2030"/>
<text x="265" y="258" fill="#D4764A" font-size="13" text-anchor="middle">C-Tier</text>
<rect x="350" y="238" width="150" height="32" rx="4" fill="#2D1A2D" stroke="#5CB85C" stroke-width="1.5"/>
<text x="425" y="258" fill="#5CB85C" font-size="13" text-anchor="middle">A-Tier</text>
<rect x="510" y="238" width="150" height="32" rx="4" fill="#2D1A2D" stroke="#5CB85C" stroke-width="1"/>
<text x="585" y="258" fill="#5CB85C" font-size="11" text-anchor="middle">1/3 &rarr; 1/1</text>

<!-- Bunker -->
<rect x="40" y="275" width="140" height="32" rx="4" fill="#2D1A2D" stroke="#E8D5C0" stroke-width="1"/>
<text x="110" y="295" fill="#F5E6D3" font-size="13" text-anchor="middle">Bunker</text>
<rect x="190" y="275" width="150" height="32" rx="4" fill="#3A2030"/>
<text x="265" y="295" fill="#D4764A" font-size="13" text-anchor="middle">B-Tier</text>
<rect x="350" y="275" width="150" height="32" rx="4" fill="#2D1A2D" stroke="#4A9B9B" stroke-width="1.5"/>
<text x="425" y="295" fill="#4A9B9B" font-size="13" text-anchor="middle">S-Tier</text>
<rect x="510" y="275" width="150" height="32" rx="4" fill="#2D1A2D" stroke="#4A9B9B" stroke-width="1"/>
<text x="585" y="295" fill="#4A9B9B" font-size="11" text-anchor="middle">Reworked</text>

<!-- Lich -->
<rect x="40" y="312" width="140" height="32" rx="4" fill="#2D1A2D" stroke="#E8D5C0" stroke-width="1"/>
<text x="110" y="332" fill="#F5E6D3" font-size="13" text-anchor="middle">Lich</text>
<rect x="190" y="312" width="150" height="32" rx="4" fill="#3A2030"/>
<text x="265" y="332" fill="#D4764A" font-size="13" text-anchor="middle">B-Tier</text>
<rect x="350" y="312" width="150" height="32" rx="4" fill="#2D1A2D" stroke="#A85D6A" stroke-width="1.5"/>
<text x="425" y="332" fill="#A85D6A" font-size="13" text-anchor="middle">C-Tier</text>
<rect x="510" y="312" width="150" height="32" rx="4" fill="#2D1A2D" stroke="#A85D6A" stroke-width="1"/>
<text x="585" y="332" fill="#A85D6A" font-size="11" text-anchor="middle">Nerfed v1.2</text>

<!-- Legend box -->
<rect x="40" y="360" width="620" height="40" rx="6" fill="#2D1A2D" stroke="#D4A84A" stroke-width="1"/>
<rect x="60" y="373" width="12" height="12" rx="3" fill="#5CB85C"/>
<text x="78" y="384" fill="#5CB85C" font-size="11">Buffed</text>
<rect x="140" y="373" width="12" height="12" rx="3" fill="#A85D6A"/>
<text x="158" y="384" fill="#A85D6A" font-size="11">Nerfed</text>
<rect x="220" y="373" width="12" height="12" rx="3" fill="#4A9B9B"/>
<text x="238" y="384" fill="#4A9B9B" font-size="11">Reworked</text>
<text x="350" y="388" fill="#E8D5C0" font-size="11" text-anchor="middle">6 Gambits moved up, 2 moved down, 2 added (Missigno + Graal)</text>
</svg>