<svg xmlns="http://www.w3.org/2000/svg" font-family="Inter,sans-serif" width="700" height="380" viewBox="0 0 700 380">
<rect width="700" height="380" fill="#1A0F1A" rx="12"/>
<text x="350" y="35" fill="#D4A84A" font-family="'VT323',monospace" font-size="22" text-anchor="middle">Tile Gambit Legality - Matrix</text>

<!-- Header -->
<rect x="30" y="55" width="140" height="30" rx="4" fill="#2D1A2D"/>
<text x="100" y="74" fill="#D4A84A" font-family="'VT323',monospace" font-size="12" text-anchor="middle">Tile Type</text>

<rect x="175" y="55" width="120" height="30" rx="4" fill="#2D1A2D"/>
<text x="235" y="74" fill="#D4A84A" font-family="'VT323',monospace" font-size="12" text-anchor="middle">Gambit Activation</text>

<rect x="300" y="55" width="160" height="30" rx="4" fill="#2D1A2D"/>
<text x="380" y="74" fill="#D4A84A" font-family="'VT323',monospace" font-size="12" text-anchor="middle">Effect Persistence</text>

<rect x="465" y="55" width="205" height="30" rx="4" fill="#2D1A2D"/>
<text x="567" y="74" fill="#D4A84A" font-family="'VT323',monospace" font-size="12" text-anchor="middle">Verdict</text>

<!-- Light Tile -->
<rect x="30" y="90" width="140" height="44" rx="4" fill="#2D1A2D" stroke="#5CB85C" stroke-width="1"/>
<text x="100" y="111" fill="#5CB85C" font-family="'VT323',monospace" font-size="12" text-anchor="middle">Light Tile</text>
<text x="100" y="126" fill="#E8D5C0" font-size="10" text-anchor="middle">Standard</text>

<rect x="175" y="90" width="120" height="44" rx="4" fill="#2D1A2D"/>
<text x="235" y="115" fill="#5CB85C" font-size="14" text-anchor="middle">Full</text>

<rect x="300" y="90" width="160" height="44" rx="4" fill="#2D1A2D"/>
<text x="380" y="115" fill="#5CB85C" font-size="12" text-anchor="middle">Full duration</text>

<rect x="465" y="90" width="205" height="44" rx="4" fill="#2D1A2D"/>
<text x="567" y="115" fill="#5CB85C" font-family="'VT323',monospace" font-size="13" text-anchor="middle">Always Safe</text>

<line x1="30" y1="139" x2="670" y2="139" stroke="#E8D5C0" stroke-width="0.3" opacity="0.2"/>

<!-- Dark Tile -->
<rect x="30" y="144" width="140" height="44" rx="4" fill="#2D1A2D" stroke="#3A2030" stroke-width="1"/>
<text x="100" y="165" fill="#7A3D4A" font-family="'VT323',monospace" font-size="12" text-anchor="middle">Dark Tile</text>
<text x="100" y="180" fill="#E8D5C0" font-size="10" text-anchor="middle">Shadow zone</text>

<rect x="175" y="144" width="120" height="44" rx="4" fill="#2D1A2D"/>
<text x="235" y="169" fill="#D4764A" font-size="14" text-anchor="middle">Silent fail</text>

<rect x="300" y="144" width="160" height="44" rx="4" fill="#2D1A2D"/>
<text x="380" y="169" fill="#E8D5C0" font-size="12" text-anchor="middle">None</text>

<rect x="465" y="144" width="205" height="44" rx="4" fill="#2D1A2D"/>
<text x="567" y="169" fill="#D4764A" font-family="'VT323',monospace" font-size="13" text-anchor="middle">Move off ASAP</text>

<line x1="30" y1="193" x2="670" y2="193" stroke="#E8D5C0" stroke-width="0.3" opacity="0.2"/>

<!-- Ghost Tile -->
<rect x="30" y="198" width="140" height="44" rx="4" fill="#2D1A2D" stroke="#4A9B9B" stroke-width="1"/>
<text x="100" y="219" fill="#4A9B9B" font-family="'VT323',monospace" font-size="12" text-anchor="middle">Ghost Tile</text>
<text x="100" y="234" fill="#E8D5C0" font-size="10" text-anchor="middle">Phantom zone</text>

<rect x="175" y="198" width="120" height="44" rx="4" fill="#2D1A2D"/>
<text x="235" y="223" fill="#4A9B9B" font-size="14" text-anchor="middle">Fake activates</text>

<rect x="300" y="198" width="160" height="44" rx="4" fill="#2D1A2D"/>
<text x="380" y="223" fill="#E8D5C0" font-size="12" text-anchor="middle">Cancelled</text>

<rect x="465" y="198" width="205" height="44" rx="4" fill="#2D1A2D"/>
<text x="567" y="223" fill="#4A9B9B" font-family="'VT323',monospace" font-size="13" text-anchor="middle">Tricky. Test 1st</text>

<line x1="30" y1="247" x2="670" y2="247" stroke="#E8D5C0" stroke-width="0.3" opacity="0.2"/>

<!-- Boundary Tile -->
<rect x="30" y="252" width="140" height="44" rx="4" fill="#2D1A2D" stroke="#A85D6A" stroke-width="1"/>
<text x="100" y="273" fill="#A85D6A" font-family="'VT323',monospace" font-size="12" text-anchor="middle">Boundary Tile</text>
<text x="100" y="288" fill="#E8D5C0" font-size="10" text-anchor="middle">Edge zone</text>

<rect x="175" y="252" width="120" height="44" rx="4" fill="#2D1A2D"/>
<text x="235" y="277" fill="#D4764A" font-size="14" text-anchor="middle">Degraded</text>

<rect x="300" y="252" width="160" height="44" rx="4" fill="#2D1A2D"/>
<text x="380" y="277" fill="#E8D5C0" font-size="12" text-anchor="middle">50% reduced</text>

<rect x="465" y="252" width="205" height="44" rx="4" fill="#2D1A2D"/>
<text x="567" y="277" fill="#A85D6A" font-family="'VT323',monospace" font-size="13" text-anchor="middle">Center zone only</text>

<!-- Gold Tile -->
<rect x="30" y="301" width="140" height="44" rx="4" fill="#2D1A2D" stroke="#D4A84A" stroke-width="1.5"/>
<text x="100" y="322" fill="#D4A84A" font-family="'VT323',monospace" font-size="12" text-anchor="middle">Gold Tile</text>
<text x="100" y="337" fill="#E8D5C0" font-size="10" text-anchor="middle">Value zone</text>

<rect x="175" y="301" width="120" height="44" rx="4" fill="#2D1A2D"/>
<text x="235" y="326" fill="#D4A84A" font-size="14" text-anchor="middle">Full + Bonus</text>

<rect x="300" y="301" width="160" height="44" rx="4" fill="#2D1A2D"/>
<text x="380" y="326" fill="#5CB85C" font-size="12" text-anchor="middle">Enhanced</text>

<rect x="465" y="301" width="205" height="44" rx="4" fill="#2D1A2D"/>
<text x="567" y="326" fill="#D4A84A" font-family="'VT323',monospace" font-size="13" text-anchor="middle">PRIORITY TARGET</text>
</svg>